<svg xmlns="http://www.w3.org/2000/svg" width="641" height="240" fill="none"><g clip-path="url(#a)"><path fill="#202124" d="M.18 0h640v240H.18z"/><mask id="b" width="641" height="240" x="0" y="0" maskUnits="userSpaceOnUse" style="mask-type:alpha"><path fill="#D9D9D9" d="M.18 0h640v240H.18z"/></mask><g mask="url(#b)"><path stroke="#AECBFA" stroke-miterlimit="10" stroke-width="4" d="M157.98 38.19a7 7 0 1 0 0-14 7 7 0 0 0 0 14Z"/><path fill="#AECBFA" d="M583.11 29.261c.421-1.42 2.433-1.42 2.854 0l1.771 5.977a2.976 2.976 0 0 0 2.008 2.008l5.977 1.771c1.421.421 1.421 2.433 0 2.854l-5.977 1.771a2.976 2.976 0 0 0-2.008 2.009l-1.771 5.977c-.421 1.42-2.433 1.42-2.854 0l-1.771-5.977a2.976 2.976 0 0 0-2.008-2.009l-5.977-1.77c-1.421-.422-1.421-2.434 0-2.855l5.977-1.77a2.976 2.976 0 0 0 2.008-2.01l1.771-5.976Z"/><path stroke="#AECBFA" stroke-miterlimit="10" stroke-width="8" d="M52.49 210.44c8.836 0 16-7.164 16-16s-7.164-16-16-16-16 7.164-16 16 7.164 16 16 16Z"/><rect width="354" height="160.938" x="2" y="2" stroke="#A2D004" stroke-width="4" rx="80.469" transform="matrix(1 0 0 1 44.516 -31.152)"/><path fill="#4285F4" d="M455.697 97.053c0-27.562-22.343-49.905-49.904-49.905H225.21c-27.561 0-49.904 22.343-49.904 49.905v73.467c0 27.561 22.343 49.904 49.904 49.904h180.583c27.561 0 49.904-22.343 49.904-49.904V97.053Z"/><path fill="#15305C" d="M442.045 93.02c0-18.374-14.895-33.27-33.27-33.27H222.227c-18.374 0-33.27 14.896-33.27 33.27v81.533c0 18.374 14.896 33.269 33.27 33.269h186.548c18.375 0 33.27-14.895 33.27-33.269V93.02Z"/><mask id="c" width="139" height="81" x="243" y="127" maskUnits="userSpaceOnUse" style="mask-type:alpha"><path fill="#34A853" d="M380.127 198.949a68.956 68.956 0 0 0-5.835-15.473 69.894 69.894 0 0 0-5.029-8.198 69.249 69.249 0 0 0-7.593-8.939 69.327 69.327 0 0 0-12.227-9.685c.027-.044.051-.091.078-.135 1.389-2.4 2.783-4.797 4.172-7.197l4.079-7.03c.977-1.682 1.954-3.367 2.927-5.049.232-.399.413-.812.551-1.235a6.347 6.347 0 0 0-.594-5.197 6.27 6.27 0 0 0-2.196-2.185 6.33 6.33 0 0 0-4.864-.678 6.322 6.322 0 0 0-3.851 2.94l-2.927 5.049-4.079 7.03c-1.39 2.4-2.783 4.797-4.173 7.197-.151.262-.305.524-.456.789-.212-.084-.42-.167-.631-.248-7.664-2.921-15.98-4.519-24.671-4.519-.238 0-.473 0-.712.004a69.165 69.165 0 0 0-22.079 3.83 63.11 63.11 0 0 0-2.38.883c-.141-.245-.286-.49-.426-.735-1.39-2.4-2.783-4.797-4.173-7.198l-4.079-7.029c-.977-1.682-1.954-3.367-2.927-5.049a6.331 6.331 0 0 0-6.02-3.129 6.307 6.307 0 0 0-2.695.866 6.314 6.314 0 0 0-2.881 3.814 6.344 6.344 0 0 0 .642 4.804c.977 1.682 1.954 3.367 2.927 5.049l4.079 7.029c1.39 2.4 2.783 4.797 4.173 7.198l.033.06a69.68 69.68 0 0 0-7.99 5.784 69.737 69.737 0 0 0-11.947 12.918 69.022 69.022 0 0 0-10.864 23.67 69.513 69.513 0 0 0-1.581 8.994h137.79a69.67 69.67 0 0 0-1.571-9Z"/></mask><g mask="url(#c)"><path fill="url(#d)" d="M382.448 125.192H235.365v82.753h147.083v-82.753Z"/><g filter="url(#e)" opacity=".8"><path fill="url(#f)" fill-opacity=".4" d="M317.838 151.753c14.578 10.282-26.452 11.411-42.302 33.883-15.85 22.471-3.145 61.501-17.722 51.219-9.001-12.344-10.371-37.383 5.479-59.855 15.85-22.472 42.18-29.855 54.545-25.247Z"/></g><g filter="url(#g)" opacity=".7"><path fill="url(#h)" fill-opacity=".4" d="M313.442 152.168c-13.339 9.649 24.203 10.708 38.705 31.795 14.502 21.088 2.877 57.713 16.215 48.065 8.236-11.584 9.49-35.081-5.013-56.168-14.502-21.088-38.594-28.017-49.907-23.692Z"/></g><g filter="url(#i)" opacity=".6"><path fill="#8BD8A0" d="M242.044 188.528c-5.6 17.615-8.483 32.422-6.44 33.071 2.043.65 8.238-13.104 13.838-30.72 5.6-17.615 28.698-36.823 26.655-37.472-2.043-.649-28.453 17.505-34.053 35.121Z"/></g><g filter="url(#j)" opacity=".5"><path fill="#8BD8A0" d="M382.745 188.528c5.599 17.615 8.483 32.422 6.44 33.071-2.043.65-8.238-13.104-13.838-30.72-5.6-17.615-28.698-36.823-26.655-37.472 2.043-.649 28.453 17.505 34.053 35.121Z"/></g><g filter="url(#k)" opacity=".1"><path fill="#202124" d="M279.086 156.47c.663-.434-2.839-6.963-7.822-14.585-4.983-7.622-9.56-13.449-10.222-13.016-.663.433 2.839 6.963 7.822 14.585 4.983 7.621 9.56 13.449 10.222 13.016Z"/></g><g filter="url(#l)" opacity=".3"><path fill="#fff" d="M277.024 136.914c5.801 9.528 8.63 13.893 9.275 13.5.644-.392-1.141-5.393-6.942-14.921-5.593-12.725-15.681-5.136-14.685-3.745 1.939 3.731 4.935-8.192 12.352 5.166Z"/></g><path fill="url(#m)" fill-opacity=".9" d="M260.868 133.613c1.047 3.616 5.344 5.549 9.599 4.318 4.255-1.232 6.855-5.161 5.809-8.777-1.047-3.616-5.344-5.549-9.599-4.317-4.254 1.231-6.855 5.161-5.809 8.776Z" opacity=".15"/><path fill="url(#n)" fill-opacity=".9" d="M348.845 134.015c1.047 3.616 5.344 5.549 9.599 4.318 4.254-1.232 6.855-5.161 5.808-8.777-1.046-3.616-5.344-5.549-9.598-4.317-4.255 1.231-6.856 5.16-5.809 8.776Z" opacity=".15"/><g filter="url(#o)" opacity=".1"><path fill="#202124" d="M346.113 156.939c-.669-.422 2.727-7.008 7.586-14.709 4.859-7.702 9.341-13.602 10.011-13.18.669.422-2.727 7.008-7.586 14.709-4.859 7.702-9.341 13.602-10.011 13.18Z"/></g><mask id="p" width="24" height="16" x="336" y="142" maskUnits="userSpaceOnUse" style="mask-type:alpha"><path fill="#000" d="M350.08 157.065c-3.264-2.035-10.717-5.53-14.035-7.023l2.193-7.759 21.428 8.621c-1.836 2.902-6.322 8.196-9.586 6.161Z"/></mask><g filter="url(#q)" mask="url(#p)" opacity=".3" style="mix-blend-mode:screen"><path fill="#81C995" d="M340.297 151.228c-1.626-.799-3.071-1.19-3.227-.872-.156.318 1.063.999 2.689 1.798 1.627.799 3.044 1.413 3.2 1.096.157-.318-1.035-1.223-2.662-2.022Z"/></g><mask id="r" width="24" height="17" x="265" y="142" maskUnits="userSpaceOnUse" style="mask-type:alpha"><path fill="#000" d="M274.758 157.698c3.221-2.102 10.6-5.749 13.887-7.31l-2.352-7.713-21.246 9.061c1.895 2.863 6.49 8.064 9.711 5.962Z"/></mask><g filter="url(#s)" mask="url(#r)" opacity=".3" style="mix-blend-mode:screen"><path fill="#81C995" d="M284.412 151.667c1.61-.832 3.046-1.252 3.209-.938.162.315-1.042 1.021-2.652 1.853-1.609.832-3.014 1.476-3.177 1.162-.162-.315 1.011-1.244 2.62-2.077Z"/></g><g filter="url(#t)" opacity=".3"><path fill="#fff" d="M348.503 137.421c-5.426 9.398-8.089 13.701-8.775 13.305-.685-.395.866-5.341 6.292-14.738 6.184-16.328 18.442-14.17 16.432-5.246-1.586 3.668-7.08-6.502-13.949 6.679Z"/></g></g><path fill="url(#u)" fill-opacity=".7" d="M284.592 182.846c.834-.945.13-2.95-1.571-4.48-1.702-1.53-3.757-2.005-4.591-1.06-.834.944-.131 2.95 1.571 4.48 1.702 1.529 3.757 2.004 4.591 1.06Z"/><path fill="url(#v)" fill-opacity=".7" d="M343.067 180.432c1.702-1.53 2.406-3.536 1.572-4.48-.834-.945-2.89-.47-4.591 1.06-1.702 1.53-2.405 3.535-1.571 4.48.833.944 2.889.469 4.59-1.06Z"/><path fill="#011B04" d="M285.714 187.679c2.063-5.153-.104-8.327-1.445-9.316-3.868-4.789-9.078-1.093-10.626.989-1.547 2.029-3.817 5.673-1.599 10.669 2.218 4.997 11.09 4.112 13.67-2.342ZM339.201 187.793c-2.063-5.101.103-8.327 1.444-9.264 3.869-4.789 9.079-1.093 10.626.989 1.548 2.029 3.817 5.673 1.599 10.617-2.218 4.945-11.09 4.112-13.669-2.29v-.052Z" opacity=".09"/><path fill="#202124" d="M350.862 191.32c3.198-2.134 3.714-7.078 1.135-10.982-2.579-3.904-7.273-5.309-10.471-3.175-3.198 2.134-3.714 7.079-1.135 10.982 2.579 3.904 7.273 5.309 10.471 3.175Z"/><path fill="#000" d="M284.479 187.982c2.579-3.904 2.115-8.744-1.032-10.878-3.146-2.082-7.737-.625-10.316 3.227-2.579 3.903-2.115 8.744 1.031 10.878 3.147 2.082 7.738.624 10.317-3.227ZM340.4 188.043c-2.579-3.903-2.115-8.744 1.032-10.878 3.146-2.082 7.737-.624 10.316 3.227 2.579 3.904 2.115 8.744-1.031 10.878-3.147 2.082-7.738.625-10.317-3.227Z"/><path fill="url(#w)" d="M285.389 180.367c-1.486-4.186-4.967-4.231-6.524-3.75 1.318-.77 3.863-.257 5.074.869.926.895 1.389 2.311 1.507 2.927l-.057-.046Z" opacity=".8"/><path fill="url(#x)" d="M344.427 176.962c-3.662.208-4.848 3.122-5.003 4.528.361-.885 1.702-2.707 4.023-3.175 2.321-.417 5.365 2.238 6.603 3.643l1.134-1.301c-.722-1.353-3.094-3.956-6.757-3.695Z"/><path fill="#000" d="M350.818 179.978c2.476 3.018 2.734 6.61 2.425 8.119.619-2.967.412-5.829-1.961-8.744-1.289-1.614-3.301-2.498-4.745-2.915-.206-.052-.464-.104-.619-.156-.361-.104-.671-.156-.877-.156.258.052.567.104.877.156.206 0 .413.104.619.156 1.032.365 2.424 1.145 4.333 3.54h-.052Z"/><path fill="#E2DCE1" d="M277.296 178.747c-1.444.312-2.528 1.821-2.837 2.55l.722 1.093s.516-.885 1.083-1.457c.568-.573 1.445-1.198 1.806-1.458l-.722-.728h-.052ZM347.619 178.783c1.392.26 2.476 1.717 2.837 2.446l-.723 1.041s-.515-.833-1.083-1.405c-.567-.573-1.392-1.145-1.754-1.406l.723-.676Z" opacity=".8"/><g fill="#E2DCE1" opacity=".8"><path d="M283.18 186.54c-.671.364-1.754.885-2.219 1.093l-.412 1.249c1.083-.364 1.857-.989 2.166-1.249l.465-1.093ZM285.344 181.069a8.15 8.15 0 0 0-.412-1.093v.468c.206.364.361 1.041.412 1.353 0-.104.103-.416 0-.78v.052Z"/></g><g fill="#E2DCE1" opacity=".8"><path d="M341.592 186.649c.67.365 1.754.885 2.218 1.093l.412 1.25c-1.083-.365-1.856-.989-2.166-1.25l-.464-1.093ZM339.47 181.178c.103-.364.309-.885.412-1.093v.468c-.206.365-.361 1.041-.412 1.354 0-.104-.103-.417 0-.781v.052Z"/></g><path fill="#356AC3" d="M488.252 231.451c0-6.09-4.937-11.027-11.027-11.027H154.828c-6.09 0-11.027 4.937-11.027 11.027 0 6.09 4.937 11.027 11.027 11.027h322.397c6.09 0 11.027-4.937 11.027-11.027Z"/><path fill="#A2D004" d="M360.135 220.424h-88.213a8.402 8.402 0 0 0 8.401 8.402h71.411a8.402 8.402 0 0 0 8.401-8.402Z"/><path stroke="#174EA6" stroke-linecap="round" stroke-linejoin="round" stroke-width="8" d="M439.947 219.374H192.111"/><rect width="134.42" height="84.013" fill="#2A8642" rx="42.006" transform="matrix(-1 0 0 1 496.561 21.9)"/><path fill="#A2D004" d="M445.737 89.11c3.327 0 5.868-.917 7.622-2.751 1.755-1.798 2.632-4.31 2.632-7.54v-7.703c0-1.504.402-2.568 1.207-3.192.767-.66 1.736-.99 2.906-.99h1.316V60.88h-1.316c-1.17 0-2.139-.312-2.906-.935-.805-.66-1.207-1.743-1.207-3.247v-7.704c0-3.265-.877-5.797-2.632-7.594-1.754-1.798-4.295-2.697-7.622-2.697h-4.935v5.943h4.168c1.096 0 2.047.404 2.851 1.211.768.77 1.152 1.834 1.152 3.192v8.254c0 1.725.347 3.137 1.041 4.238.695 1.1 1.81 1.816 3.345 2.146v.44c-1.535.33-2.65 1.045-3.345 2.146-.694 1.1-1.041 2.513-1.041 4.237v8.255c0 1.357-.384 2.44-1.152 3.246-.804.771-1.755 1.156-2.851 1.156h-4.168v5.943h4.935ZM412.962 38.703c-3.327 0-5.867.917-7.622 2.752-1.755 1.797-2.632 4.31-2.632 7.539v7.704c0 1.504-.402 2.568-1.206 3.191-.768.66-1.737.991-2.907.991h-1.316v6.053h1.316c1.17 0 2.139.312 2.907.936.804.66 1.206 1.743 1.206 3.247v7.704c0 3.265.877 5.796 2.632 7.594 1.755 1.797 4.295 2.696 7.622 2.696h4.935v-5.943h-4.168c-1.096 0-2.047-.403-2.851-1.21-.768-.77-1.151-1.835-1.151-3.192V70.51c0-1.724-.348-3.136-1.042-4.237-.695-1.1-1.81-1.816-3.345-2.146v-.44c1.535-.33 2.65-1.046 3.345-2.147.694-1.1 1.042-2.513 1.042-4.237V49.05c0-1.358.383-2.44 1.151-3.247.804-.77 1.755-1.156 2.851-1.156h4.168v-5.943h-4.935Z"/><path fill="#000" d="M620.503 122.332c-10.424 0-20.054-1.974-29.217-5.865-9.169-4.02-17.257-9.497-24.038-16.279-6.782-6.781-12.259-14.869-16.278-24.037-3.892-9.166-5.865-18.797-5.865-29.222a.3.3 0 0 0-.599 0c0 10.423-2.037 20.053-6.056 29.222-3.893 9.168-9.306 17.256-16.087 24.037-6.78 6.782-14.869 12.259-24.036 16.277-9.167 3.893-18.8 5.867-29.225 5.867a.3.3 0 0 0 0 .599c10.423 0 20.056 2.037 29.225 6.057 9.169 3.895 17.257 9.307 24.036 16.086 6.781 6.784 12.195 14.87 16.088 24.041 4.018 9.165 6.055 18.791 6.055 29.214a.3.3 0 1 0 .599 0c0-10.426 1.973-20.052 5.865-29.214 4.019-9.171 9.495-17.259 16.278-24.041 6.779-6.78 14.866-12.193 24.038-16.087 9.166-4.018 18.795-6.056 29.217-6.056a.3.3 0 1 0 0-.599Z"/><path fill="url(#y)" d="M620.503 122.332c-10.424 0-20.054-1.974-29.217-5.865-9.169-4.02-17.257-9.497-24.038-16.279-6.782-6.781-12.259-14.869-16.278-24.037-3.892-9.166-5.865-18.797-5.865-29.222a.3.3 0 0 0-.599 0c0 10.423-2.037 20.053-6.056 29.222-3.893 9.168-9.306 17.256-16.087 24.037-6.78 6.782-14.869 12.259-24.036 16.277-9.167 3.893-18.8 5.867-29.225 5.867a.3.3 0 0 0 0 .599c10.423 0 20.056 2.037 29.225 6.057 9.169 3.895 17.257 9.307 24.036 16.086 6.781 6.784 12.195 14.87 16.088 24.041 4.018 9.165 6.055 18.791 6.055 29.214a.3.3 0 1 0 .599 0c0-10.426 1.973-20.052 5.865-29.214 4.019-9.171 9.495-17.259 16.278-24.041 6.779-6.78 14.866-12.193 24.038-16.087 9.166-4.018 18.795-6.056 29.217-6.056a.3.3 0 1 0 0-.599Z"/></g><path fill="#000" d="M70.797 149.717c-1.847-.438-3.392-1.462-5.555-3.68-3.613-3.706-6.544-5.249-11.64-6.126-5.286-.91-7.635-2.875-9.047-7.568-1.743-5.793-3.565-8.567-7.568-11.524-4.542-3.354-5.707-6.312-4.598-11.672 1.026-4.965.633-8.495-1.452-13.033-2.488-5.415-2.18-8.308 1.353-12.745 3.239-4.067 4.256-6.755 4.74-12.536.49-5.834 2.113-8.227 6.893-10.164 3.99-1.616 7.403-4.423 9.295-7.642 2.188-3.723 2.507-4.15 3.863-5.161 2.187-1.633 3.956-2.085 7.325-1.874 5.851.367 8.987-.335 12.917-2.893 5.123-3.336 8.23-3.336 13.354 0 3.929 2.558 7.065 3.26 12.917 2.893 5.533-.346 7.836 1.106 11.209 7.072 1.671 2.957 5.088 5.834 8.827 7.434 5.326 2.28 6.874 4.36 7.266 9.766.426 5.855 1.626 9.128 4.806 13.105 3.541 4.429 3.85 7.325 1.36 12.745-2.085 4.538-2.478 8.068-1.451 13.033 1.108 5.36-.057 8.318-4.598 11.672-4.003 2.957-5.825 5.731-7.569 11.524-1.412 4.693-3.761 6.658-9.047 7.568-5.106.879-8.041 2.426-11.64 6.137-3.989 4.114-6.848 4.793-12.425 2.95-4.561-1.508-8.073-1.515-12.616-.023-3.183 1.044-4.88 1.226-6.92.742Z" opacity=".2"/><path fill="#fff" d="M70.797 148.623c-1.847-.438-3.392-1.461-5.555-3.68-3.613-3.706-6.544-5.249-11.64-6.126-5.286-.91-7.635-2.875-9.047-7.568-1.743-5.792-3.565-8.567-7.568-11.523-4.542-3.355-5.707-6.313-4.598-11.673 1.026-4.965.633-8.494-1.452-13.033-2.488-5.415-2.18-8.308 1.353-12.745 3.239-4.067 4.256-6.755 4.74-12.536.49-5.833 2.113-8.227 6.893-10.164 3.99-1.616 7.403-4.422 9.295-7.642 2.188-3.723 2.507-4.15 3.863-5.161 2.187-1.632 3.956-2.084 7.325-1.873 5.851.367 8.987-.336 12.917-2.894 5.123-3.335 8.23-3.335 13.354 0 3.929 2.558 7.065 3.26 12.917 2.894 5.533-.347 7.836 1.105 11.209 7.071 1.671 2.957 5.088 5.834 8.827 7.434 5.326 2.28 6.874 4.36 7.266 9.766.426 5.855 1.626 9.128 4.806 13.105 3.541 4.429 3.85 7.325 1.36 12.745-2.085 4.539-2.478 8.068-1.451 13.033 1.108 5.36-.057 8.318-4.598 11.673-4.003 2.956-5.825 5.731-7.569 11.523-1.412 4.693-3.761 6.658-9.047 7.568-5.106.879-8.041 2.427-11.64 6.138-3.989 4.114-6.848 4.792-12.425 2.949-4.561-1.508-8.073-1.514-12.616-.023-3.183 1.044-4.88 1.226-6.92.742Z"/><path fill="#034ECA" d="M109.058 126.874a1.363 1.363 0 0 1-2.501 1.062l-3.287-6.103a2.008 2.008 0 1 1 3.682-1.563l2.106 6.604Z"/><path fill="url(#z)" d="M109.058 126.874a1.363 1.363 0 0 1-2.501 1.062l-3.287-6.103a2.008 2.008 0 1 1 3.682-1.563l2.106 6.604Z"/><mask id="A" width="20" height="24" x="97" y="82" maskUnits="userSpaceOnUse" style="mask-type:alpha"><path fill="#fff" d="M106.491 104.971a11.698 11.698 0 0 0 3.156-3.053 11.67 11.67 0 0 0 1.326-2.47c.219-.559.394-1.136.525-1.724l.025.005 1.38.26a6373.202 6373.202 0 0 0 2.315.435 1.072 1.072 0 0 0 1.02-.367 1.057 1.057 0 0 0 .211-.948 1.058 1.058 0 0 0-.617-.716 1.083 1.083 0 0 0-.218-.066l-.968-.181-1.347-.255-1.38-.259c-.05-.01-.1-.02-.151-.028l.004-.114a11.62 11.62 0 0 0-.706-4.287 11.652 11.652 0 0 0-2.123-3.622l.093-.109.91-1.066.89-1.043.639-.748a1.07 1.07 0 0 0-.6-1.738 1.116 1.116 0 0 0-.298-.017 1.075 1.075 0 0 0-.728.371l-.639.748-.889 1.043-.911 1.066-.008.009a11.828 11.828 0 0 0-2.246-1.414 11.74 11.74 0 0 0-4.704-1.155 11.632 11.632 0 0 0-3.04.304l7.736 21.893c.462-.222.913-.473 1.343-.754Z"/></mask><g mask="url(#A)"><path fill="#4FAF53" d="m118.303 101.226-8.25-23.38-13.155 4.642 8.251 23.38 13.154-4.642Z"/><g filter="url(#B)" opacity=".8"><path fill="url(#C)" fill-opacity=".3" d="M110.455 92.446c-.817 2.894-3.298-3.565-7.759-4.824s-9.953 2.95-9.136.056c1.457-2.123 5.36-3.745 9.822-2.486 4.461 1.259 7.112 5.03 7.073 7.254Z"/></g><g filter="url(#D)" opacity=".7"><path fill="url(#E)" fill-opacity=".4" d="M109.895 90.856c-2.452-1.741-.33 4.845-3.013 8.625-2.683 3.779-9.6 3.949-7.148 5.69 2.467.738 6.524-.449 9.207-4.229 2.683-3.78 2.38-8.38.954-10.086Z"/></g><g filter="url(#F)" opacity=".6"><path fill="#8BD8A0" d="M100.355 82.461c-3.115.098-5.63.47-5.619.832.012.36 2.545.574 5.66.476 3.114-.098 7.463 2.496 7.452 2.135-.012-.361-4.379-3.54-7.493-3.443Z"/></g><g filter="url(#G)" opacity=".5"><path fill="#8BD8A0" d="M108.249 104.825c-2.486 1.879-4.678 3.168-4.896 2.879-.217-.288 1.621-2.044 4.107-3.923 2.487-1.878 4.244-6.627 4.462-6.339.218.289-1.187 5.505-3.673 7.383Z"/></g><g filter="url(#H)" opacity=".7"><path fill="#0D652D" d="M109.401 84.285c-1.136 1.392-1.69 2.022-1.813 1.921-.123-.1.231-.892 1.368-2.285.7-1.745 2.782-.895 2.905-.795.123.1-1.004-.828-2.46 1.16Z"/></g><g filter="url(#I)" opacity=".1"><path fill="#000" d="M107.364 86.09c.106.08.947-.843 1.879-2.062.932-1.22 1.602-2.274 1.496-2.355-.106-.081-.948.842-1.88 2.061-.932 1.22-1.601 2.274-1.495 2.355Z"/></g><g filter="url(#J)" opacity=".3"><path fill="#fff" d="M110.522 85.125c-1.189 1.456-1.724 2.151-1.626 2.231.099.08.794-.483 1.983-1.94 1.709-1.603-.063-2.78-.229-2.544-.484.517 1.579.325-.128 2.253Z"/></g><path fill="url(#K)" fill-opacity=".9" d="M109.981 81.911c-.516.37-.583 1.161-.148 1.768.434.608 1.205.8 1.721.431.516-.369.582-1.16.148-1.768-.435-.607-1.205-.8-1.721-.43Z" opacity=".15"/><path fill="url(#L)" fill-opacity=".9" d="M115.078 95.837c-.516.369-.582 1.16-.147 1.768.434.607 1.204.8 1.721.43.516-.368.582-1.16.147-1.767-.434-.608-1.205-.8-1.721-.431Z" opacity=".15"/><g filter="url(#M)" opacity=".1"><path fill="#000" d="M111.376 97.692c.029-.13 1.266.04 2.763.38 1.497.341 2.686.722 2.657.852-.03.13-1.267-.04-2.764-.38-1.497-.34-2.686-.722-2.656-.852Z"/></g><mask id="N" width="3" height="5" x="111" y="95" maskUnits="userSpaceOnUse" style="mask-type:alpha"><path fill="#000" d="M111.417 97.867c.14-.633.277-2.013.329-2.625l1.356-.086-.168 3.89c-.565-.13-1.658-.546-1.517-1.179Z"/></mask><g mask="url(#N)"><g filter="url(#O)" opacity=".3" style="mix-blend-mode:multiply"><path fill="#0D652D" d="M111.727 98.147c.065-1.066.009-1.937-.124-1.945-.133-.008-.211.81-.276 1.877-.064 1.066-.092 1.976.041 1.984.133.008.294-.85.359-1.916Z"/></g><g filter="url(#P)" opacity=".3" style="mix-blend-mode:screen"><path fill="#81C995" d="M111.795 95.987c.035-.304.016-.555-.043-.562-.059-.007-.099.225-.135.528-.036.304-.054.563.005.57.06.007.137-.233.173-.536Z"/></g></g><mask id="Q" width="5" height="4" x="106" y="84" maskUnits="userSpaceOnUse" style="mask-type:alpha"><path fill="#000" d="M107.085 85.933c.515.394 1.509 1.363 1.941 1.798l1.094-.807-2.632-2.869c-.349.462-.918 1.484-.403 1.878Z"/></mask><g mask="url(#Q)"><g filter="url(#R)" opacity=".3" style="mix-blend-mode:multiply"><path fill="#0D652D" d="M107.139 85.52c.736.774 1.254 1.477 1.157 1.569-.097.091-.683-.485-1.419-1.26-.736-.774-1.343-1.453-1.246-1.545.097-.092.772.461 1.508 1.236Z"/></g><g filter="url(#S)" opacity=".3" style="mix-blend-mode:screen"><path fill="#81C995" d="M108.586 87.129c.223.209.37.413.329.457-.04.043-.22-.108-.443-.318-.223-.209-.404-.396-.363-.44.041-.043.255.091.477.3Z"/></g></g><g filter="url(#T)" opacity=".7"><path fill="#0D652D" d="M114.15 97.931c-1.767-.33-2.597-.452-2.626-.296-.029.156.753.532 2.52.862 1.661.88 2.703-1.112 2.732-1.269.03-.156-.232 1.28-2.626.703Z"/></g><g filter="url(#U)" opacity=".3"><path fill="#fff" d="M114.455 96.516c-1.798-.336-2.631-.517-2.607-.649.025-.13.898-.162 2.696.174 2.942.067 3.287 2.136 1.756 2.318-.673-.047.636-1.49-1.845-1.843Z"/></g></g><path fill="url(#V)" fill-opacity=".7" d="M103.931 88.307c-.148.36-.107.716.091.797.197.081.476-.145.624-.504.147-.36.106-.717-.091-.798-.198-.08-.477.145-.624.505Z"/><path fill="url(#W)" fill-opacity=".7" d="M107.381 98.137c-.34-.188-.533-.491-.43-.678.103-.187.462-.186.802.001.34.188.533.491.43.678-.103.187-.462.186-.802-.001Z"/><g filter="url(#X)" opacity=".09" style="mix-blend-mode:multiply"><path fill="#011B04" d="M102.979 89.35c.934.041 1.319-.485 1.395-.753.546-.888-.34-1.512-.754-1.645-.414-.135-1.117-.292-1.783.339-.665.63-.025 2.007 1.142 2.059Z"/></g><g filter="url(#Y)" opacity=".09" style="mix-blend-mode:multiply"><path fill="#011B04" d="M105.99 97.922c.696-.617 1.324-.448 1.551-.287.978.35.682 1.391.446 1.755-.237.364-.682.926-1.592.851-.91-.074-1.276-1.549-.405-2.32Z"/></g><path fill="#000" d="M106.135 99.97c.524.393 1.333.201 1.807-.43.474-.63.434-1.46-.089-1.852-.524-.393-1.333-.2-1.807.43s-.434 1.46.089 1.852Z"/><g filter="url(#Z)"><path fill="#000" d="M102.917 89.155c.766.193 1.513-.152 1.67-.772.158-.62-.336-1.278-1.101-1.472-.765-.193-1.513.152-1.67.772-.157.62.336 1.279 1.101 1.472Z"/></g><g filter="url(#aa)"><path fill="#000" d="M106.061 98.111c.474-.63 1.273-.83 1.785-.446.511.384.541 1.206.067 1.836-.474.63-1.273.83-1.784.446-.512-.384-.542-1.206-.068-1.836Z"/></g><mask id="ab" width="4" height="4" x="101" y="86" maskUnits="userSpaceOnUse" style="mask-type:alpha"><path fill="#202124" d="M102.917 89.155c.766.193 1.513-.152 1.67-.772.158-.62-.336-1.278-1.101-1.472-.765-.193-1.513.152-1.67.772-.157.62.336 1.278 1.101 1.472Z"/></mask><g mask="url(#ab)"><g filter="url(#ac)"><path fill="#D8D8D8" fill-opacity=".29" d="M103.565 87.046c-.623-.223-1.201-.069-1.424.064.432-.264.904-.39 1.497-.171.327.12.581.39.731.6a1.21 1.21 0 0 1 .137.227c-.023-.036-.044-.082-.074-.133a3.556 3.556 0 0 0-.063-.093c-.112-.145-.321-.32-.804-.494Z"/></g><g filter="url(#ad)" opacity=".8"><path fill="url(#ae)" d="M104.074 88.866c.626-.405.5-.987.36-1.227.175.188.193.632.059.87-.107.19-.324.317-.419.357Z"/></g></g><mask id="af" width="4" height="4" x="105" y="97" maskUnits="userSpaceOnUse" style="mask-type:alpha"><path fill="#202124" d="M106.063 98.112c.474-.63 1.273-.83 1.785-.446.511.384.541 1.206.067 1.836-.474.63-1.273.829-1.784.445-.512-.383-.542-1.205-.068-1.835Z"/></mask><g mask="url(#af)"><path fill="url(#ag)" d="M108.005 98.155a.87.87 0 0 0-1.001-.547c.159.01.528.117.727.464.198.346-.054.987-.204 1.264l.271.112c.17-.192.451-.719.207-1.293Z"/><g filter="url(#ah)"><path fill="#D8D8D8" fill-opacity=".29" d="M107.887 99.346c-.344.564-.892.807-1.149.844.503-.066.949-.264 1.273-.806.179-.3.207-.669.192-.927a.896.896 0 0 0-.01-.111 1.13 1.13 0 0 0-.026-.152c.006.044.018.092.026.151.004.034.008.072.01.112.004.183-.049.45-.316.89Z"/></g></g><g filter="url(#ai)" opacity=".8"><path fill="#E2DCE1" d="M103.931 87.502c-.127-.212-.428-.3-.563-.316l-.132.175c.045.005.166.031.29.09.124.06.272.163.33.207l.075-.156Z"/></g><g filter="url(#aj)" opacity=".8"><path fill="#E2DCE1" d="M107.894 98.768c.036.242-.134.494-.224.59l-.205-.056c.03-.032.104-.126.16-.247.056-.122.103-.292.119-.361l.15.074Z"/></g><g fill="#E2DCE1" filter="url(#ak)" opacity=".8"><path d="M103.029 88.88a5.548 5.548 0 0 1-.296-.29h-.221c.115.153.26.246.318.274l.199.017ZM104.021 88.918c.05-.033.119-.1.147-.13l-.077.028a.918.918 0 0 1-.191.144c.02 0 .07-.009.121-.042Z"/></g><g fill="#E2DCE1" filter="url(#al)" opacity=".8"><path d="M106.313 98.244c-.023.132-.041.33-.048.413l-.173.139a1.003 1.003 0 0 1 .076-.414l.145-.138ZM107.058 97.594c.059-.005.155.003.196.008l-.078.028a.896.896 0 0 0-.238.007.249.249 0 0 1 .12-.043Z"/></g><g filter="url(#am)" opacity=".3"><path fill="url(#an)" fill-opacity=".4" d="M108.437 101.559c-2.835 1 1.013-4.75-.53-9.121-1.542-4.371-8.147-6.433-5.311-7.434 2.575-.033 6.15 2.222 7.693 6.593 1.542 4.372-.012 8.711-1.852 9.962Z"/></g><g filter="url(#ao)" opacity=".2"><path fill="url(#ap)" fill-opacity=".4" d="M108.437 101.559c-2.835 1 1.013-4.75-.53-9.121-1.542-4.371-8.147-6.433-5.311-7.434 2.575-.033 6.15 2.222 7.693 6.593 1.542 4.372-.012 8.711-1.852 9.962Z"/></g><path fill="#4386F5" d="M61.07 89.687c-.607-1.074-1.648-1.844-2.892-2.142-1.244-.298-2.59-.099-3.742.553-1.152.653-2.015 1.704-2.4 2.924-.385 1.22-.155 2.694.453 3.767l4.438-2.29 4.143-2.812Z"/><path fill="url(#aq)" fill-rule="evenodd" d="M61.035 89.62c6.424 10.634 19.87 15.184 31.622 10.163l3.923 9.18c-16.392 7.004-35.129.653-44.09-14.18l8.545-5.162Z" clip-rule="evenodd"/><path fill="#034ECA" d="M59.155 126.874a1.364 1.364 0 0 0 2.501 1.062l3.287-6.103a2.008 2.008 0 1 0-3.682-1.563l-2.106 6.604Z"/><path fill="url(#ar)" d="M59.155 126.874a1.364 1.364 0 0 0 2.501 1.062l3.287-6.103a2.008 2.008 0 1 0-3.682-1.563l-2.106 6.604Z"/><path fill="#356AC3" d="M75.925 69.337a5.651 5.651 0 1 1 10.62 3.865l-16.584 45.566a5.65 5.65 0 0 1-10.62-3.866l16.584-45.565Z"/><path fill="url(#as)" d="M64.227 122.457a5.633 5.633 0 0 0 5.861-3.678L83.56 81.767a5.633 5.633 0 0 0-1.465-6.06l-17.867 46.75Z"/><path fill="#356AC3" d="M87.662 59.051a3.555 3.555 0 0 0-7.11 0v6.745a3.555 3.555 0 0 0 7.11 0v-6.745Z"/><path fill="url(#at)" d="M87.662 59.051a3.555 3.555 0 0 0-7.11 0v6.745a3.555 3.555 0 0 0 7.11 0v-6.745Z"/><g filter="url(#au)" opacity=".5"><path fill="#044FCB" d="M91.147 110.512c-1.39.119.85-1.599.507-5.598-.23-2.696.709-4.979 2.099-5.098 1.39-.119 2.704 1.971 2.935 4.667 1.15 4.319-4.151 5.91-5.541 6.029Z"/></g><path fill="url(#av)" d="M81.555 73.15a5.587 5.587 0 0 1 10.492-3.845l16.726 45.651a5.586 5.586 0 1 1-10.49 3.844L81.555 73.15Z"/><path fill="url(#aw)" d="M79.64 67.528a6.565 6.565 0 0 0-4.556 4.12l-15.722 43.175c-.959 2.632 0 5.478 2.049 6.754l18.23-54.05Z"/><path fill="url(#ax)" fill-opacity=".9" d="M81.198 59.607c.797.797 2.234.652 3.209-.323.975-.975 1.12-2.411.323-3.208-.797-.797-2.233-.652-3.208.323-.976.975-1.12 2.411-.324 3.208Z" opacity=".3"/><path fill="url(#ay)" fill-opacity=".9" d="M73.75 84.03c2.383 1.375 6.054-.524 8.2-4.242 2.147-3.718 1.957-7.848-.426-9.223-2.382-1.375-6.053.524-8.2 4.242-2.147 3.718-1.956 7.847.427 9.223Z" opacity=".3"/><path fill="#fff" d="M84.015 79.376a6.927 6.927 0 1 0 0-13.854 6.927 6.927 0 0 0 0 13.854Z"/><path fill="#202124" fill-rule="evenodd" d="M84.02 67.346a5.104 5.104 0 1 0 0 10.208 5.104 5.104 0 0 0 0-10.209Zm-8.75 5.104a8.75 8.75 0 1 1 17.5 0 8.75 8.75 0 0 1-17.5 0Z" clip-rule="evenodd"/><path fill="#AECBFA" d="M597.683 175.521c.631-1.728 3.076-1.728 3.706 0l2.468 6.761a13.155 13.155 0 0 0 7.734 7.804l6.695 2.511c1.706.641 1.706 3.054 0 3.694l-6.695 2.512a13.152 13.152 0 0 0-7.734 7.804l-2.468 6.761c-.63 1.728-3.075 1.728-3.706 0l-2.467-6.762a13.153 13.153 0 0 0-7.734-7.803l-6.695-2.512c-1.706-.64-1.706-3.053 0-3.694l6.695-2.511a13.155 13.155 0 0 0 7.734-7.804l2.467-6.761Z"/></g><defs><filter id="e" width="85.748" height="104.1" x="243.17" y="142.446" color-interpolation-filters="sRGB" filterUnits="userSpaceOnUse"><feFlood flood-opacity="0" result="BackgroundImageFix"/><feBlend in="SourceGraphic" in2="BackgroundImageFix" result="shape"/><feGaussianBlur result="effect1_foregroundBlur_19692_8399" stdDeviation="4"/></filter><filter id="g" width="79.818" height="98.674" x="302.623" y="142.941" color-interpolation-filters="sRGB" filterUnits="userSpaceOnUse"><feFlood flood-opacity="0" result="BackgroundImageFix"/><feBlend in="SourceGraphic" in2="BackgroundImageFix" result="shape"/><feGaussianBlur result="effect1_foregroundBlur_19692_8399" stdDeviation="4"/></filter><filter id="i" width="116.543" height="143.497" x="197.314" y="115.757" color-interpolation-filters="sRGB" filterUnits="userSpaceOnUse"><feFlood flood-opacity="0" result="BackgroundImageFix"/><feBlend in="SourceGraphic" in2="BackgroundImageFix" result="shape"/><feGaussianBlur result="effect1_foregroundBlur_19692_8399" stdDeviation="18.817"/></filter><filter id="j" width="116.543" height="143.497" x="310.932" y="115.757" color-interpolation-filters="sRGB" filterUnits="userSpaceOnUse"><feFlood flood-opacity="0" result="BackgroundImageFix"/><feBlend in="SourceGraphic" in2="BackgroundImageFix" result="shape"/><feGaussianBlur result="effect1_foregroundBlur_19692_8399" stdDeviation="18.817"/></filter><filter id="k" width="26.205" height="35.646" x="256.961" y="124.846" color-interpolation-filters="sRGB" filterUnits="userSpaceOnUse"><feFlood flood-opacity="0" result="BackgroundImageFix"/><feBlend in="SourceGraphic" in2="BackgroundImageFix" result="shape"/><feGaussianBlur result="effect1_foregroundBlur_19692_8399" stdDeviation="2"/></filter><filter id="l" width="97.086" height="97.469" x="226.971" y="90.603" color-interpolation-filters="sRGB" filterUnits="userSpaceOnUse"><feFlood flood-opacity="0" result="BackgroundImageFix"/><feBlend in="SourceGraphic" in2="BackgroundImageFix" result="shape"/><feGaussianBlur result="effect1_foregroundBlur_19692_8399" stdDeviation="18.817"/></filter><filter id="o" width="25.764" height="35.932" x="342.029" y="125.029" color-interpolation-filters="sRGB" filterUnits="userSpaceOnUse"><feFlood flood-opacity="0" result="BackgroundImageFix"/><feBlend in="SourceGraphic" in2="BackgroundImageFix" result="shape"/><feGaussianBlur result="effect1_foregroundBlur_19692_8399" stdDeviation="2"/></filter><filter id="q" width="13.916" height="11.089" x="333.057" y="146.246" color-interpolation-filters="sRGB" filterUnits="userSpaceOnUse"><feFlood flood-opacity="0" result="BackgroundImageFix"/><feBlend in="SourceGraphic" in2="BackgroundImageFix" result="shape"/><feGaussianBlur result="effect1_foregroundBlur_19692_8399" stdDeviation="2"/></filter><filter id="s" width="13.857" height="11.2" x="277.777" y="146.625" color-interpolation-filters="sRGB" filterUnits="userSpaceOnUse"><feFlood flood-opacity="0" result="BackgroundImageFix"/><feBlend in="SourceGraphic" in2="BackgroundImageFix" result="shape"/><feGaussianBlur result="effect1_foregroundBlur_19692_8399" stdDeviation="2"/></filter><filter id="t" width="55.096" height="58.892" x="323.576" y="107.86" color-interpolation-filters="sRGB" filterUnits="userSpaceOnUse"><feFlood flood-opacity="0" result="BackgroundImageFix"/><feBlend in="SourceGraphic" in2="BackgroundImageFix" result="shape"/><feGaussianBlur result="effect1_foregroundBlur_19692_8399" stdDeviation="8"/></filter><filter id="B" width="19.282" height="10.74" x="92.326" y="83.597" color-interpolation-filters="sRGB" filterUnits="userSpaceOnUse"><feFlood flood-opacity="0" result="BackgroundImageFix"/><feBlend in="SourceGraphic" in2="BackgroundImageFix" result="shape"/><feGaussianBlur result="effect1_foregroundBlur_19692_8399" stdDeviation=".576"/></filter><filter id="D" width="15.21" height="18.268" x="97.488" y="88.839" color-interpolation-filters="sRGB" filterUnits="userSpaceOnUse"><feFlood flood-opacity="0" result="BackgroundImageFix"/><feBlend in="SourceGraphic" in2="BackgroundImageFix" result="shape"/><feGaussianBlur result="effect1_foregroundBlur_19692_8399" stdDeviation=".864"/></filter><filter id="F" width="14.84" height="5.208" x="93.872" y="81.594" color-interpolation-filters="sRGB" filterUnits="userSpaceOnUse"><feFlood flood-opacity="0" result="BackgroundImageFix"/><feBlend in="SourceGraphic" in2="BackgroundImageFix" result="shape"/><feGaussianBlur result="effect1_foregroundBlur_19692_8399" stdDeviation=".432"/></filter><filter id="G" width="10.336" height="12.044" x="102.471" y="96.565" color-interpolation-filters="sRGB" filterUnits="userSpaceOnUse"><feFlood flood-opacity="0" result="BackgroundImageFix"/><feBlend in="SourceGraphic" in2="BackgroundImageFix" result="shape"/><feGaussianBlur result="effect1_foregroundBlur_19692_8399" stdDeviation=".432"/></filter><filter id="H" width="6.612" height="5.691" x="106.412" y="81.679" color-interpolation-filters="sRGB" filterUnits="userSpaceOnUse"><feFlood flood-opacity="0" result="BackgroundImageFix"/><feBlend in="SourceGraphic" in2="BackgroundImageFix" result="shape"/><feGaussianBlur result="effect1_foregroundBlur_19692_8399" stdDeviation=".576"/></filter><filter id="I" width="3.973" height="5.003" x="107.065" y="81.379" color-interpolation-filters="sRGB" filterUnits="userSpaceOnUse"><feFlood flood-opacity="0" result="BackgroundImageFix"/><feBlend in="SourceGraphic" in2="BackgroundImageFix" result="shape"/><feGaussianBlur result="effect1_foregroundBlur_19692_8399" stdDeviation=".144"/></filter><filter id="J" width="4.461" height="6.251" x="108.02" y="81.977" color-interpolation-filters="sRGB" filterUnits="userSpaceOnUse"><feFlood flood-opacity="0" result="BackgroundImageFix"/><feBlend in="SourceGraphic" in2="BackgroundImageFix" result="shape"/><feGaussianBlur result="effect1_foregroundBlur_19692_8399" stdDeviation=".432"/></filter><filter id="M" width="5.998" height="1.897" x="111.087" y="97.36" color-interpolation-filters="sRGB" filterUnits="userSpaceOnUse"><feFlood flood-opacity="0" result="BackgroundImageFix"/><feBlend in="SourceGraphic" in2="BackgroundImageFix" result="shape"/><feGaussianBlur result="effect1_foregroundBlur_19692_8399" stdDeviation=".144"/></filter><filter id="O" width="1.633" height="5.014" x="110.697" y="95.625" color-interpolation-filters="sRGB" filterUnits="userSpaceOnUse"><feFlood flood-opacity="0" result="BackgroundImageFix"/><feBlend in="SourceGraphic" in2="BackgroundImageFix" result="shape"/><feGaussianBlur result="effect1_foregroundBlur_19692_8399" stdDeviation=".288"/></filter><filter id="P" width=".92" height="1.79" x="111.238" y="95.079" color-interpolation-filters="sRGB" filterUnits="userSpaceOnUse"><feFlood flood-opacity="0" result="BackgroundImageFix"/><feBlend in="SourceGraphic" in2="BackgroundImageFix" result="shape"/><feGaussianBlur result="effect1_foregroundBlur_19692_8399" stdDeviation=".173"/></filter><filter id="R" width="3.84" height="3.977" x="105.045" y="83.698" color-interpolation-filters="sRGB" filterUnits="userSpaceOnUse"><feFlood flood-opacity="0" result="BackgroundImageFix"/><feBlend in="SourceGraphic" in2="BackgroundImageFix" result="shape"/><feGaussianBlur result="effect1_foregroundBlur_19692_8399" stdDeviation=".288"/></filter><filter id="S" width="1.51" height="1.465" x="107.758" y="86.475" color-interpolation-filters="sRGB" filterUnits="userSpaceOnUse"><feFlood flood-opacity="0" result="BackgroundImageFix"/><feBlend in="SourceGraphic" in2="BackgroundImageFix" result="shape"/><feGaussianBlur result="effect1_foregroundBlur_19692_8399" stdDeviation=".173"/></filter><filter id="T" width="7.561" height="3.81" x="110.371" y="96.064" color-interpolation-filters="sRGB" filterUnits="userSpaceOnUse"><feFlood flood-opacity="0" result="BackgroundImageFix"/><feBlend in="SourceGraphic" in2="BackgroundImageFix" result="shape"/><feGaussianBlur result="effect1_foregroundBlur_19692_8399" stdDeviation=".576"/></filter><filter id="U" width="7.075" height="4.312" x="110.983" y="94.91" color-interpolation-filters="sRGB" filterUnits="userSpaceOnUse"><feFlood flood-opacity="0" result="BackgroundImageFix"/><feBlend in="SourceGraphic" in2="BackgroundImageFix" result="shape"/><feGaussianBlur result="effect1_foregroundBlur_19692_8399" stdDeviation=".432"/></filter><filter id="X" width="3.324" height="2.868" x="101.395" y="86.657" color-interpolation-filters="sRGB" filterUnits="userSpaceOnUse"><feFlood flood-opacity="0" result="BackgroundImageFix"/><feBlend in="SourceGraphic" in2="BackgroundImageFix" result="shape"/><feGaussianBlur result="effect1_foregroundBlur_19692_8399" stdDeviation=".086"/></filter><filter id="Y" width="3.072" height="3.109" x="105.321" y="97.312" color-interpolation-filters="sRGB" filterUnits="userSpaceOnUse"><feFlood flood-opacity="0" result="BackgroundImageFix"/><feBlend in="SourceGraphic" in2="BackgroundImageFix" result="shape"/><feGaussianBlur result="effect1_foregroundBlur_19692_8399" stdDeviation=".086"/></filter><filter id="Z" width="2.945" height="2.466" x="101.701" y="86.857" color-interpolation-filters="sRGB" filterUnits="userSpaceOnUse"><feFlood flood-opacity="0" result="BackgroundImageFix"/><feColorMatrix in="SourceAlpha" result="hardAlpha" values="0 0 0 0 0 0 0 0 0 0 0 0 0 0 0 0 0 0 127 0"/><feOffset dx="-.029" dy=".058"/><feGaussianBlur stdDeviation=".029"/><feComposite in2="hardAlpha" operator="out"/><feColorMatrix values="0 0 0 0 0.0156863 0 0 0 0 0.231373 0 0 0 0 0.0666667 0 0 0 0.7 0"/><feBlend in2="BackgroundImageFix" result="effect1_dropShadow_19692_8399"/><feBlend in="SourceGraphic" in2="effect1_dropShadow_19692_8399" result="shape"/></filter><filter id="aa" width="2.641" height="2.787" x="105.638" y="97.47" color-interpolation-filters="sRGB" filterUnits="userSpaceOnUse"><feFlood flood-opacity="0" result="BackgroundImageFix"/><feColorMatrix in="SourceAlpha" result="hardAlpha" values="0 0 0 0 0 0 0 0 0 0 0 0 0 0 0 0 0 0 127 0"/><feOffset dx="-.029" dy=".058"/><feGaussianBlur stdDeviation=".029"/><feComposite in2="hardAlpha" operator="out"/><feColorMatrix values="0 0 0 0 0.0156863 0 0 0 0 0.231373 0 0 0 0 0.0666667 0 0 0 0.7 0"/><feBlend in2="BackgroundImageFix" result="effect1_dropShadow_19692_8399"/><feBlend in="SourceGraphic" in2="effect1_dropShadow_19692_8399" result="shape"/></filter><filter id="ac" width="2.481" height="1.056" x="102.083" y="86.769" color-interpolation-filters="sRGB" filterUnits="userSpaceOnUse"><feFlood flood-opacity="0" result="BackgroundImageFix"/><feBlend in="SourceGraphic" in2="BackgroundImageFix" result="shape"/><feGaussianBlur result="effect1_foregroundBlur_19692_8399" stdDeviation=".029"/></filter><filter id="ad" width=".535" height="1.256" x="104.06" y="87.624" color-interpolation-filters="sRGB" filterUnits="userSpaceOnUse"><feFlood flood-opacity="0" result="BackgroundImageFix"/><feBlend in="SourceGraphic" in2="BackgroundImageFix" result="shape"/><feGaussianBlur result="effect1_foregroundBlur_19692_8399" stdDeviation=".007"/></filter><filter id="ah" width="1.584" height="2.11" x="106.681" y="98.137" color-interpolation-filters="sRGB" filterUnits="userSpaceOnUse"><feFlood flood-opacity="0" result="BackgroundImageFix"/><feBlend in="SourceGraphic" in2="BackgroundImageFix" result="shape"/><feGaussianBlur result="effect1_foregroundBlur_19692_8399" stdDeviation=".029"/></filter><filter id="ai" width=".811" height=".587" x="103.179" y="87.128" color-interpolation-filters="sRGB" filterUnits="userSpaceOnUse"><feFlood flood-opacity="0" result="BackgroundImageFix"/><feBlend in="SourceGraphic" in2="BackgroundImageFix" result="shape"/><feGaussianBlur result="effect1_foregroundBlur_19692_8399" stdDeviation=".029"/></filter><filter id="aj" width=".549" height=".779" x="107.407" y="98.636" color-interpolation-filters="sRGB" filterUnits="userSpaceOnUse"><feFlood flood-opacity="0" result="BackgroundImageFix"/><feBlend in="SourceGraphic" in2="BackgroundImageFix" result="shape"/><feGaussianBlur result="effect1_foregroundBlur_19692_8399" stdDeviation=".029"/></filter><filter id="ak" width="1.714" height=".429" x="102.483" y="88.561" color-interpolation-filters="sRGB" filterUnits="userSpaceOnUse"><feFlood flood-opacity="0" result="BackgroundImageFix"/><feBlend in="SourceGraphic" in2="BackgroundImageFix" result="shape"/><feGaussianBlur result="effect1_foregroundBlur_19692_8399" stdDeviation=".014"/></filter><filter id="al" width="1.22" height="1.261" x="106.063" y="97.564" color-interpolation-filters="sRGB" filterUnits="userSpaceOnUse"><feFlood flood-opacity="0" result="BackgroundImageFix"/><feBlend in="SourceGraphic" in2="BackgroundImageFix" result="shape"/><feGaussianBlur result="effect1_foregroundBlur_19692_8399" stdDeviation=".014"/></filter><filter id="am" width="11.327" height="18.975" x="100.744" y="83.851" color-interpolation-filters="sRGB" filterUnits="userSpaceOnUse"><feFlood flood-opacity="0" result="BackgroundImageFix"/><feBlend in="SourceGraphic" in2="BackgroundImageFix" result="shape"/><feGaussianBlur result="effect1_foregroundBlur_19692_8399" stdDeviation=".576"/></filter><filter id="ao" width="11.327" height="18.975" x="100.744" y="83.851" color-interpolation-filters="sRGB" filterUnits="userSpaceOnUse"><feFlood flood-opacity="0" result="BackgroundImageFix"/><feBlend in="SourceGraphic" in2="BackgroundImageFix" result="shape"/><feGaussianBlur result="effect1_foregroundBlur_19692_8399" stdDeviation=".576"/></filter><filter id="au" width="9.047" height="13.591" x="89.245" y="98.369" color-interpolation-filters="sRGB" filterUnits="userSpaceOnUse"><feFlood flood-opacity="0" result="BackgroundImageFix"/><feBlend in="SourceGraphic" in2="BackgroundImageFix" result="shape"/><feGaussianBlur result="effect1_foregroundBlur_19692_8399" stdDeviation=".721"/></filter><linearGradient id="f" x1="262.511" x2="282.877" y1="176.449" y2="190.813" gradientUnits="userSpaceOnUse"><stop stop-color="#A8F0B9"/><stop offset="1" stop-color="#ADEEBC" stop-opacity="0"/></linearGradient><linearGradient id="h" x1="361.776" x2="345.189" y1="177.95" y2="188.439" gradientUnits="userSpaceOnUse"><stop stop-color="#A8F0B9"/><stop offset="1" stop-color="#ADEEBC" stop-opacity="0"/></linearGradient><linearGradient id="w" x1="281.543" x2="282.454" y1="174.498" y2="180.524" gradientUnits="userSpaceOnUse"><stop stop-color="#E2DDE2"/><stop offset="1" stop-color="#E2DDE2" stop-opacity="0"/></linearGradient><linearGradient id="x" x1="345.304" x2="345.304" y1="176.962" y2="181.958" gradientUnits="userSpaceOnUse"><stop stop-color="#373637"/><stop offset="1" stop-color="#373637" stop-opacity="0"/></linearGradient><linearGradient id="y" x1="516.109" x2="584.868" y1="144.88" y2="86.908" gradientUnits="userSpaceOnUse"><stop stop-color="#217BFE"/><stop offset=".27" stop-color="#078EFB"/><stop offset=".777" stop-color="#A190FF"/><stop offset="1" stop-color="#BD99FE"/></linearGradient><linearGradient id="z" x1="108.171" x2="104.572" y1="128.315" y2="126.274" gradientUnits="userSpaceOnUse"><stop stop-color="#4285F4"/><stop offset="1" stop-color="#034ECA"/></linearGradient><linearGradient id="C" x1="103.426" x2="102.285" y1="85.036" y2="89.079" gradientUnits="userSpaceOnUse"><stop stop-color="#A8F0B9"/><stop offset="1" stop-color="#ADEEBC" stop-opacity="0"/></linearGradient><linearGradient id="E" x1="109.073" x2="105.647" y1="101.036" y2="98.604" gradientUnits="userSpaceOnUse"><stop stop-color="#A8F0B9"/><stop offset="1" stop-color="#ADEEBC" stop-opacity="0"/></linearGradient><linearGradient id="ae" x1="104.731" x2="103.777" y1="87.612" y2="87.997" gradientUnits="userSpaceOnUse"><stop stop-color="#E2DDE2"/><stop offset="1" stop-color="#E2DDE2" stop-opacity="0"/></linearGradient><linearGradient id="ag" x1="108.057" x2="107.259" y1="98.296" y2="98.578" gradientUnits="userSpaceOnUse"><stop stop-color="#373637"/><stop offset="1" stop-color="#373637" stop-opacity="0"/></linearGradient><linearGradient id="an" x1="110.441" x2="106.479" y1="91.544" y2="92.942" gradientUnits="userSpaceOnUse"><stop stop-color="#A8F0B9"/><stop offset="1" stop-color="#ADEEBC" stop-opacity="0"/></linearGradient><linearGradient id="ap" x1="110.441" x2="106.479" y1="91.544" y2="92.942" gradientUnits="userSpaceOnUse"><stop stop-color="#A8F0B9"/><stop offset="1" stop-color="#ADEEBC" stop-opacity="0"/></linearGradient><linearGradient id="aq" x1="80.467" x2="97.784" y1="104.533" y2="103.165" gradientUnits="userSpaceOnUse"><stop stop-color="#4285F4"/><stop offset=".703" stop-color="#044FCB"/></linearGradient><linearGradient id="ar" x1="60.685" x2="64.418" y1="127.403" y2="125.199" gradientUnits="userSpaceOnUse"><stop stop-color="#4285F4"/><stop offset="1" stop-color="#034ECA"/></linearGradient><linearGradient id="as" x1="77.815" x2="75.825" y1="96.057" y2="95.367" gradientUnits="userSpaceOnUse"><stop stop-color="#73A7FF"/><stop offset="1" stop-color="#5893F6" stop-opacity="0"/></linearGradient><linearGradient id="at" x1="84.107" x2="87.236" y1="59.473" y2="62.288" gradientUnits="userSpaceOnUse"><stop stop-color="#4285F4"/><stop offset="1" stop-color="#034ECA"/></linearGradient><linearGradient id="av" x1="87.607" x2="97.069" y1="77.887" y2="97.663" gradientUnits="userSpaceOnUse"><stop stop-color="#034DC9"/><stop offset="1" stop-color="#4285F4"/></linearGradient><linearGradient id="aw" x1="64.71" x2="69.696" y1="94.182" y2="95.893" gradientUnits="userSpaceOnUse"><stop stop-color="#9BC0FF"/><stop offset="1" stop-color="#5893F6" stop-opacity="0"/></linearGradient><radialGradient id="d" cx="0" cy="0" r="1" gradientTransform="rotate(91.332 66.712 243.876) scale(62.3847 99.0357)" gradientUnits="userSpaceOnUse"><stop offset=".307" stop-color="#4FAF53"/><stop offset="1" stop-color="#118016"/><stop offset="1" stop-color="#4FAF53" stop-opacity="0"/></radialGradient><radialGradient id="m" cx="0" cy="0" r="1" gradientTransform="rotate(163.34 124.667 85.354) scale(5.04142 3.65328)" gradientUnits="userSpaceOnUse"><stop stop-color="#fff"/><stop offset=".948" stop-color="#fff" stop-opacity="0"/></radialGradient><radialGradient id="n" cx="0" cy="0" r="1" gradientTransform="rotate(163.34 168.627 91.996) scale(5.04142 3.65328)" gradientUnits="userSpaceOnUse"><stop stop-color="#fff"/><stop offset=".948" stop-color="#fff" stop-opacity="0"/></radialGradient><radialGradient id="u" cx="0" cy="0" r="1" gradientTransform="matrix(-1.2104 1.29923 -2.36496 -2.20327 285.011 180.669)" gradientUnits="userSpaceOnUse"><stop stop-color="#93E19F"/><stop offset="1" stop-color="#93E19F" stop-opacity="0"/></radialGradient><radialGradient id="v" cx="0" cy="0" r="1" gradientTransform="rotate(47.027 -33.988 482.705) scale(1.77413 3.23069)" gradientUnits="userSpaceOnUse"><stop stop-color="#93E19F"/><stop offset="1" stop-color="#93E19F" stop-opacity="0"/></radialGradient><radialGradient id="K" cx="0" cy="0" r="1" gradientTransform="matrix(-.50067 -.68667 .4976 -.36281 110.767 83.01)" gradientUnits="userSpaceOnUse"><stop stop-color="#fff"/><stop offset=".948" stop-color="#fff" stop-opacity="0"/></radialGradient><radialGradient id="L" cx="0" cy="0" r="1" gradientTransform="matrix(-.50067 -.68667 .4976 -.36281 115.865 96.936)" gradientUnits="userSpaceOnUse"><stop stop-color="#fff"/><stop offset=".948" stop-color="#fff" stop-opacity="0"/></radialGradient><radialGradient id="V" cx="0" cy="0" r="1" gradientTransform="rotate(-156.201 61.464 33.239) scale(.33155 .60386)" gradientUnits="userSpaceOnUse"><stop stop-color="#93E19F"/><stop offset="1" stop-color="#93E19F" stop-opacity="0"/></radialGradient><radialGradient id="W" cx="0" cy="0" r="1" gradientTransform="matrix(-.15214 .29443 -.53625 -.2771 107.567 97.799)" gradientUnits="userSpaceOnUse"><stop stop-color="#93E19F"/><stop offset="1" stop-color="#93E19F" stop-opacity="0"/></radialGradient><radialGradient id="ax" cx="0" cy="0" r="1" gradientTransform="matrix(-1.10016 1.11945 -.7799 -.76646 82.964 57.841)" gradientUnits="userSpaceOnUse"><stop stop-color="#fff"/><stop offset=".948" stop-color="#fff" stop-opacity="0"/></radialGradient><radialGradient id="ay" cx="0" cy="0" r="1" gradientTransform="rotate(119.609 16.329 61.238) scale(4.88669 2.66972)" gradientUnits="userSpaceOnUse"><stop stop-color="#fff"/><stop offset=".948" stop-color="#fff" stop-opacity="0"/></radialGradient><clipPath id="a"><path fill="#fff" d="M.18 0h640v240H.18z"/></clipPath></defs></svg>